<svg xmlns="http://www.w3.org/2000/svg"><symbol id="apple" viewBox="-116 1.4 181.4 181.4"><title>_</title><path class="st0" d="M-25.7 53.6c-.9-5.2.1-10.4 1.7-14.1 1.6-3.9 3.9-7.1 6.5-10 4.5-5 10.1-9.2 18.1-10.8l1.8-.3c.6-.1 1.4-.3 2-.3.3 0 .1.1.2.3.2 1 .2 2.4.2 3.5 0 9.3-3.5 16-8 21-2.7 3-5.6 5.6-9.1 7.4-3.9 2-7.7 3.2-13.4 3.3z"/><path class="st0" d="M34.1 66.2c-4.7 3.3-8.7 7.1-11.8 12-3.1 4.8-5.2 11-4.5 19 .6 7.2 3.3 12.6 6.8 16.9 3.6 4.4 8.2 7.7 13.4 10.4v.1c-3.6 10.1-8.4 18.8-14.8 26.3-3.1 3.6-6.5 7.2-10.6 9.9-2 1.3-4.5 2.5-7.3 3-3.1.5-6.1-.2-8.9-1-2.7-.8-5.1-1.8-7.6-2.7-2.5-.9-4.9-1.9-8.1-2.2-3.3-.3-6.5 0-9.3.6-2.8.6-5.3 1.5-7.8 2.5-3.5 1.5-7.3 3.2-12.4 2.9-4.7-.3-8.1-2.1-11-4.3-5.8-4.4-10.1-10.3-14-16.8-5.2-8.6-9.5-17.9-12-29-1.3-5.6-2.1-11.6-2.1-18.4 0-13.5 4-23.5 10.2-30.8 5.9-6.9 14-11.8 25.6-12.8 5.3-.4 10.7.2 14.6 1.6 3.4 1.1 6.4 2.8 9.9 3.9 1.9.6 4 .7 6.1.4 2-.3 3.7-1 5.3-1.6 3.5-1.3 6.6-2.6 10.4-3.4 3.7-.8 8.3-1.2 12.7-.8 12.2 1 20.1 6.2 26.3 13.4.4.2 1 .7.9.9z"/></symbol><symbol id="arrow-down" viewBox="0 0 64 64"><title>icons</title><path d="M32 53.66A21.66 21.66 0 1 1 53.66 32 21.69 21.69 0 0 1 32 53.66zm0-39.94A18.28 18.28 0 1 0 50.28 32 18.3 18.3 0 0 0 32 13.72z"/><path d="M31.15 24.46h1.69v14.73h-1.69z"/><path d="M32 40.74l-6.34-6.34 1.2-1.2L32 38.34l5.14-5.14 1.2 1.2L32 40.74z"/></symbol><symbol id="arrow-left-large" viewBox="0 259.581 792 92.838"><path d="M46.83 352.419l8.216-9.037-31.22-31.22H792v-12.324H23.826l31.22-32.041-8.216-8.216L0 305.589z"/></symbol><symbol id="arrow-left-nude" viewBox="0 0 64 64"><title>arrow-right-nude</title><path d="M18.4 30.3h30.3v3.5H18.4z"/><path d="M15.2 32l13.1-13.1 2.5 2.5L20.2 32l10.6 10.6-2.5 2.5z"/></symbol><symbol id="arrow-left" viewBox="0 0 792 612"><title>icons</title><path d="M603.124 306c0 114.392-92.732 207.124-207.124 207.124-114.391 0-207.124-92.732-207.124-207.124 0-114.391 92.732-207.124 207.124-207.124 114.326.158 206.966 92.798 207.124 207.124zm-381.927 0c0 96.541 78.262 174.803 174.803 174.803S570.803 402.541 570.803 306 492.541 131.197 396 131.197c-96.497.106-174.697 78.306-174.803 174.803z"/><path d="M479.58 314.13h-124.6L396 355.15l-11.48 11.48L323.9 306l60.62-60.63L396 256.85l-41.12 41.12h124.7z"/></symbol><symbol id="arrow-right-large" viewBox="0 0 792 92.838"><path d="M745.17 0l-8.216 9.037 31.22 31.22H0v12.324h768.174l-31.22 32.041 8.216 8.216L792 46.83z"/></symbol><symbol id="arrow-right-med" viewBox="211 246 370 120"><title>arrow-right-nude</title><path d="M581 306l-59.95 60-11.35-11.35 40.61-40.61H211V298h339.35l-40.65-40.659L521.05 246z"/></symbol><symbol id="arrow-right-nude" viewBox="0 0 64 64"><title>arrow-right-nude</title><path d="M15.24 30.26h30.33v3.49H15.24z"/><path d="M48.76 32L35.71 45.06l-2.47-2.47L43.83 32 33.24 21.41l2.47-2.47L48.76 32z"/></symbol><symbol id="arrow-right" viewBox="0 0 64 64"><title>icons</title><path d="M53.66 32A21.66 21.66 0 1 1 32 10.34 21.69 21.69 0 0 1 53.66 32zm-39.94 0A18.28 18.28 0 1 0 32 13.72 18.3 18.3 0 0 0 13.72 32z"/><path d="M24.46 31.15h14.73v1.69H24.46z"/><path d="M40.74 32l-6.34 6.34-1.2-1.2L38.34 32l-5.14-5.14 1.2-1.2L40.74 32z"/></symbol><symbol id="bandcamp" viewBox="0 0 64 64"><title>_</title><path d="M6.427 47.5h36.749l14.397-31H20.807z"/></symbol><symbol id="bandsintown" viewBox="0 0 181.4 181.4"><title>_</title><g id="XMLID_9_"><path id="XMLID_10_" class="st0" d="M59.1 95.5v29.4h61.3v2.5H55.7v-101H27.4v129.4h124.2V95.5z"/><path id="XMLID_11_" class="st0" d="M123 26.4h28.4V92H123z"/><path id="XMLID_12_" class="st0" d="M91 58h29.4v34H91z"/><path id="XMLID_13_" class="st0" d="M59.6 58h28.2v34H59.6z"/></g></symbol><symbol id="close" viewBox="0 0 11.33 11.514"><path d="M11.33 10.375l-1.06 1.059-4.59-4.6-4.51 4.68-1.09-1.04 4.53-4.71L0 1.144 1.06.084l4.59 4.6 4.51-4.68 1.08 1.04-4.53 4.71z"/></symbol><symbol id="deezer" viewBox="0 0 64 64"><title>_</title><path d="M6.24 43.53h9.39v2.85H6.24zM6.24 39.83h9.39v2.85H6.24zM6.24 36.13h9.39v2.85H6.24zM6.24 32.43h9.39v2.85H6.24zM6.24 28.73h9.39v2.85H6.24zM16.77 43.53h9.39v2.85h-9.39zM16.77 39.83h9.39v2.85h-9.39zM16.77 36.13h9.39v2.85h-9.39zM27.3 43.53h9.39v2.85H27.3zM27.3 39.83h9.39v2.85H27.3zM27.3 36.13h9.39v2.85H27.3zM27.3 32.43h9.39v2.85H27.3zM27.3 28.73h9.39v2.85H27.3zM27.3 25.03h9.39v2.85H27.3zM27.3 21.33h9.39v2.85H27.3zM37.83 43.53h9.39v2.85h-9.39zM37.83 39.83h9.39v2.85h-9.39zM37.83 36.13h9.39v2.85h-9.39zM37.83 32.43h9.39v2.85h-9.39zM37.83 28.73h9.39v2.85h-9.39zM48.36 43.53h9.39v2.85h-9.39zM48.36 39.83h9.39v2.85h-9.39zM48.36 36.13h9.39v2.85h-9.39zM48.36 32.43h9.39v2.85h-9.39zM48.36 28.73h9.39v2.85h-9.39zM48.36 25.03h9.39v2.85h-9.39zM48.36 21.33h9.39v2.85h-9.39zM48.36 17.63h9.39v2.85h-9.39z"/></symbol><symbol id="facebook" viewBox="0 0 64 64"><title>_</title><path d="M43.69 8.62h-6.06c-6.81 0-11.22 4.52-11.22 11.51v5.31h-6.1a1 1 0 0 0-1 1v7.69a1 1 0 0 0 1 1h6.1v19.4a1 1 0 0 0 1 1h8a1 1 0 0 0 1-1V35h6.99a1 1 0 0 0 1-1v-7.61a1 1 0 0 0-1-1h-7.13v-4.5c0-2.16.52-3.26 3.33-3.26h4.09a1 1 0 0 0 1-1V9.58a1 1 0 0 0-1-.96z"/></symbol><symbol id="folder" viewBox="89.5 35.2 613 541.6"><path stroke="#000" stroke-miterlimit="10" d="M360.3 107.1l-46.92-66.3-4.08-5.1H90v540.6h612V107.1H360.3zm321.3 20.4v51H411.3l-36.72-51H681.6zM110.4 555.9V56.1h188.7l51 71.4 47.94 67.32c2.04 3.06 5.1 4.08 8.16 4.08h275.4v357H110.4z"/></symbol><symbol id="google" viewBox="0 0 64 64"><title>_</title><path class="cls-1" d="M14.25 22.22c0 3.31 1.11 5.7 3.29 7.1a9.36 9.36 0 0 0 4.93 1.32h.62a6.36 6.36 0 0 0 1.31 4.42h-.08c-2.86 0-12.18.6-12.18 8.26s8.56 8.18 10.27 8.18H23a15.85 15.85 0 0 0 6.6-1.42c3.43-1.67 5.17-4.56 5.17-8.61s-2.65-6.24-4.59-7.94c-1.18-1-2.2-1.93-2.2-2.8s.75-1.55 1.69-2.4a8.58 8.58 0 0 0 3-7c0-3.23-.42-5.4-3-6.77a9.14 9.14 0 0 1 1.69-.3c1.4-.19 3.44-.41 3.44-1.55v-.22H24.55c-.1.01-10.3.39-10.3 9.73zm16.45 20c.19 3.12-2.47 5.42-6.48 5.71s-7.42-1.53-7.61-4.65a5.14 5.14 0 0 1 1.85-4.13 8.44 8.44 0 0 1 5.05-2.06h.69c3.8-.04 6.32 2.17 6.5 5.11zM28 20.09c1 3.52-.51 7.19-2.92 7.87a3.15 3.15 0 0 1-.85.12c-2.2 0-4.39-2.23-5.2-5.3a7.67 7.67 0 0 1 .1-4.68 4 4 0 0 1 2.58-2.71 3.13 3.13 0 0 1 .85-.12c2.71-.01 4.44 1.09 5.44 4.82zm17.17 7.66V21.1H41v6.65h-6.65V32H41v6.65h4.21V32h6.65v-4.25h-6.65z"/></symbol><symbol id="headset" viewBox="0 0 64 64"><title>icons</title><path d="M58.67 40.33V47A6.67 6.67 0 0 1 52 53.67a3.33 3.33 0 0 1-3.33-3.33v-20a16.67 16.67 0 0 0-33.33 0v20A3.33 3.33 0 0 1 12 53.67 6.67 6.67 0 0 1 5.33 47v-6.67A6.67 6.67 0 0 1 12 33.67v-3.34a20 20 0 0 1 40 0v3.33a6.67 6.67 0 0 1 6.67 6.67z"/></symbol><symbol id="instagram" viewBox="0 0 64 64"><title>_</title><path d="M14.9 9h34.2a5.76 5.76 0 0 1 5.9 5.9v34.2a5.76 5.76 0 0 1-5.9 5.9H14.9A5.76 5.76 0 0 1 9 49.1V14.9A5.76 5.76 0 0 1 14.9 9zm27.6 5.11a2.08 2.08 0 0 0-2.07 2.07v5a2.08 2.08 0 0 0 2.07 2.07h5.2a2.08 2.08 0 0 0 2.07-2.07v-5a2.08 2.08 0 0 0-2.07-2.07h-5.2zm7.3 14.34h-4a13.45 13.45 0 0 1 .59 3.95A14.08 14.08 0 0 1 32 46.25 14.08 14.08 0 0 1 17.75 32.4a13.43 13.43 0 0 1 .59-3.95h-4.23v19.43a1.83 1.83 0 0 0 1.83 1.83H48a1.83 1.83 0 0 0 1.83-1.83V28.45zM32 22.95a9 9 0 1 0 9.24 9 9.1 9.1 0 0 0-9.24-9z"/></symbol><symbol id="letter-a" viewBox="0 0 64 64"><path d="M36.5 8.3h2.7V4.6H20v3.7h3.5c-.6 1.7-1.3 2.7-2 3.8-1 1.5-2.2 3.1-3 6.6s-.5 5.5-.3 7.3c.2 1.7.4 3.1-.2 6-.7 2.9-1.5 4.1-2.5 5.5-1 1.5-2.2 3.1-3 6.6s-.5 5.5-.3 7.3c.2 1.3.3 2.6.1 4.4H9.4v3.7h17.8v-3.7h-3.9c.3-2.1.1-3.6-.1-4.9-.2-1.7-.4-3.1.2-6 .4-1.6.8-2.7 1.3-3.6h17.7l4.4 14.6h-3.2v3.7h11v-3.7h-3.9L36.5 8.3zM23.2 37.4c-1 1.5-2.2 3.1-3 6.6s-.5 5.5-.3 7.3c.2 1.3.3 2.6.1 4.4h-4.4c.3-2.1.1-3.6-.1-4.9-.2-1.7-.4-3.1.2-6 .7-2.9 1.5-4.1 2.5-5.5 1-1.5 2.2-3.1 3-6.6s.5-5.5.3-7.3c-.2-1.7-.4-3.1.2-6 .7-2.9 1.5-4.1 2.5-5.5.9-1.3 2-2.8 2.8-5.7h4.3c-.6 1.7-1.3 2.7-2 3.8-1 1.5-2.2 3.1-3 6.6s-.5 5.5-.3 7.3c.2 1.7.4 3.1-.2 6-.8 2.9-1.6 4.1-2.6 5.5zm3.8.3c.7-1.2 1.4-2.7 1.9-4.9.8-3.5.5-5.5.3-7.3-.2-1.7-.4-3.1.2-6 .7-2.9 1.5-4.1 2.5-5.5.5-.7 1.1-1.5 1.6-2.6l7.9 26.2H27v.1z"/></symbol><symbol id="letter-b" viewBox="0 0 64 64"><path d="M28.3 32.9V32c0-3.7-.9-5.6-1.7-7.3-.7-1.5-1.3-2.8-1.3-5.7 0-2.8.6-4.1 1.3-5.7.6-1.3 1.3-2.8 1.5-5.2h1.7c6.8 0 12.3 5.6 12.3 12.4 0 .9 0 1.6-.1 2.4-.2 1.4-.5 2.7-.9 3.7l3 2.5c2.2 2.4 3.6 5.8 3.6 10.8 0 13.8-11.2 15.7-17.9 15.9v3.7c13.5-.2 21.6-7.3 21.6-19.6 0-6.3-2.1-11.2-6-14.6.3-1.4.5-3 .5-4.7 0-8.9-7.2-16.1-16.1-16.1H12.6v3.7h3.6c-.2 1.5-.7 2.5-1.1 3.6-.8 1.7-1.6 3.6-1.6 7.3 0 3.7.9 5.6 1.7 7.3.7 1.5 1.3 2.8 1.3 5.7 0 2.8-.6 4.1-1.3 5.7-.8 1.7-1.6 3.6-1.6 7.3 0 3.7.9 5.6 1.7 7.3.5 1.1.9 2.1 1.2 3.6h-3.7v3.7H30V56h-1.6c-.3-2.4-.9-3.8-1.5-5.2-.7-1.5-1.3-2.9-1.3-5.7 0-2.8.6-4.1 1.3-5.7.3-.8.7-1.6 1-2.6m-7.6 19c-.3-2.4-.9-3.8-1.5-5.2-.7-1.5-1.3-2.9-1.3-5.7 0-2.8.6-4.1 1.3-5.7.8-1.7 1.6-3.6 1.6-7.3 0-3.7-.9-5.6-1.7-7.3-.7-1.5-1.3-2.8-1.3-5.7 0-2.8.6-4.1 1.3-5.7.6-1.3 1.3-2.8 1.5-5.2h4.1c-.2 1.5-.7 2.5-1.1 3.6-.8 1.7-1.6 3.6-1.6 7.3 0 3.7.9 5.6 1.7 7.3.7 1.5 1.3 2.8 1.3 5.7 0 2.8-.6 4.1-1.3 5.7-.8 1.7-1.6 3.6-1.6 7.3 0 3.7.9 5.6 1.7 7.3.5 1.1.9 2.1 1.2 3.6h-4.3z"/></symbol><symbol id="letter-c" viewBox="-265 388.9 64 64"><title>_</title><path d="M-211.8 434.6l-2.8-2.8-2.9 2.9 3 3c-4.4 4.5-10.6 7.2-17.3 7.2-4.6 0-10.8-.8-15.8-4.4v-40.2c5-3.6 11.2-4.4 15.8-4.4 6.8 0 12.9 2.8 17.3 7.2l-3 3 2.9 2.9 2.8-2.8 2.8-2.8 3.1-3.1-2.9-2.9-2.9 2.9c-5.1-5.1-12.2-8.3-20.1-8.3-15.6 0-28.3 8.3-28.3 28.3s12.7 28.3 28.3 28.3c7.8 0 14.9-3.2 20.1-8.3l2.8 2.8 2.9-2.9-3.1-3.1-2.7-2.5zm-44.5-14.1c0-7.5 1.9-12.8 4.8-16.5v33c-2.9-3.7-4.8-9-4.8-16.5z"/></symbol><symbol id="letter-d" viewBox="-265 388.9 64 64"><title>_</title><path d="M-236.3 392.2h-20.3v4h4.3c-.2 1.3-.7 2.2-1.1 3.2-.8 1.8-1.7 3.7-1.7 7.5s.9 5.8 1.7 7.5c.7 1.6 1.3 2.9 1.4 5.9 0 2.9-.6 4.3-1.3 5.9-.8 1.8-1.7 3.7-1.7 7.5s.9 5.8 1.7 7.5c.5 1.2 1 2.2 1.2 3.9h-4.5v4h20.4c4.4 0 8.3-.9 12-2.4 9.5-4.1 16-13 16-26-.1-18-12.6-28.3-28.1-28.5zm-13.4 47.3c-.7-1.6-1.3-2.9-1.4-5.9 0-2.9.6-4.3 1.3-5.9.8-1.8 1.7-3.7 1.7-7.5s-.9-5.8-1.7-7.5c-.7-1.6-1.3-2.9-1.4-5.9 0-2.9.6-4.3 1.3-5.9.6-1.3 1.2-2.7 1.5-4.8h4.2c-.2 1.3-.7 2.2-1.1 3.2-.8 1.8-1.7 3.7-1.7 7.5s.9 5.8 1.7 7.5c.7 1.6 1.3 2.9 1.4 5.9 0 2.9-.6 4.3-1.3 5.9-.8 1.8-1.7 3.7-1.7 7.5s.9 5.8 1.7 7.5c.5 1.2 1 2.2 1.2 3.9h-4.2c-.1-2.5-.9-4.1-1.5-5.5zm30.3-.8c-4.2 4-10.2 6.2-16.9 6.3h-3.6c-.3-2.6-1-4.1-1.6-5.6-.7-1.6-1.3-2.9-1.4-5.9 0-2.9.6-4.3 1.3-5.9.8-1.8 1.7-3.7 1.7-7.5s-.9-5.8-1.7-7.5c-.7-1.6-1.3-2.9-1.4-5.9 0-2.9.6-4.3 1.3-5.9.6-1.3 1.2-2.7 1.5-4.8h3.3c6.9 0 13 2.3 17.4 6.3 4.6 4.4 7.1 10.6 7.1 18.1s-2.4 13.9-7 18.3z"/></symbol><symbol id="letter-e" viewBox="0 0 64 64"><title>_</title><path class="st0" d="M53.5 49.1h-3.4v4.8c-1.6.2-2.6.7-3.5 1.1-1 .5-1.8.8-3.6.8s-2.6-.4-3.6-.8c-1.2-.6-2.6-1.2-5.2-1.2s-4 .6-5.2 1.2c-.9.4-1.6.7-2.9.8V34.4c2.2-.1 3.4-.7 4.5-1.2 1-.5 1.8-.8 3.6-.8s2.6.4 3.6.8c1.2.6 2.6 1.2 5.2 1.2.7 0 1.3-.1 1.8-.1v2.6h3.4V28h-3.4v2.6c-.5.1-1.1.2-1.8.2-1.8 0-2.6-.4-3.6-.8-1.2-.6-2.6-1.2-5.2-1.2s-4 .6-5.2 1.2c-.9.4-1.6.7-2.9.8V10.3c2.2-.1 3.4-.7 4.5-1.2 1-.5 1.8-.8 3.6-.8s2.8.4 3.8.8c1.2.6 2.6 1.2 5.2 1.2s4-.6 5.2-1.2c.6-.3 1.2-.5 1.9-.7v6.1h3.4V4.7s-.9-.2-1.7-.2c-2.6 0-4 .6-5.2 1.2-1 .5-1.8.8-3.6.8s-2.6-.4-3.6-.8c-1.2-.6-2.6-1.2-5.2-1.2s-4 .6-5.2 1.2c-1 .5-1.8.8-3.6.8S23 6.1 22 5.7c-1-.6-2.4-1.2-5-1.2s-4 .6-5.2 1.2c-.5.2-.9.4-1.4.6v3.8c1.3-.2 2.2-.6 3-1 .6-.3 1.2-.5 1.9-.7v45.5c-1.6.2-2.6.7-3.5 1.1-.5.2-.9.4-1.4.6v3.8c1.3-.2 2.2-.6 3-1 1-.5 1.8-.8 3.6-.8s2.6.4 3.6.8c1.2.6 2.6 1.2 5.2 1.2s4-.6 5.2-1.2c1-.5 1.8-.8 3.6-.8s2.6.4 3.6.8c1.2.6 2.6 1.2 5.2 1.2s4-.6 5.2-1.2c1-.5 1.8-.8 3.5-.8h1.8l-.4-8.5zm-34.6 4.7V8.4c.7.2 1.3.4 1.9.7.7.3 1.4.7 2.5.9v45.3c-.3-.1-.6-.2-.9-.4-1-.4-1.9-.9-3.5-1.1z"/></symbol><symbol id="letter-h" viewBox="-265 388.9 64 64"><title>_</title><path d="M-213 397.1h3.6v-3.8h-19.7v3.8h4.2c-.2 1.2-.6 2.2-1.1 3.1-.8 1.7-1.6 3.6-1.6 7.3 0 3.7.9 5.6 1.7 7.3.5 1.2 1 2.2 1.2 3.8-.4.1-.8.1-1.4.1-1.8 0-2.6-.4-3.6-.8-1.2-.6-2.6-1.2-5.1-1.2-2.6 0-4 .6-5.1 1.2-.1 0-.1.1-.2.1-.3-2.1-.9-3.5-1.5-4.8-.7-1.5-1.3-2.9-1.3-5.7 0-2.8.6-4.2 1.3-5.7.6-1.2 1.2-2.7 1.5-4.7h3.6v-3.8h-19.7v3.8h4.2c-.2 1.2-.6 2.2-1.1 3.1-.8 1.7-1.6 3.6-1.6 7.3 0 3.7.9 5.6 1.7 7.3.7 1.5 1.3 2.9 1.3 5.7 0 2.8-.6 4.2-1.3 5.7-.8 1.7-1.6 3.6-1.6 7.3 0 3.7.9 5.6 1.7 7.3.5 1.1.9 2 1.1 3.4h-4.3v3.9h19.7v-3.9h-3.5c-.3-2.3-.9-3.7-1.5-5-.7-1.5-1.3-2.9-1.3-5.7 0-2.8.6-4.2 1.3-5.7.7-1.5 1.4-3.1 1.6-5.8.6-.2 1.2-.4 1.6-.7 1-.5 1.8-.8 3.6-.8s2.6.4 3.6.8c1.2.6 2.6 1.2 5.1 1.2.5 0 1 0 1.4-.1-.2 1.6-.7 2.6-1.2 3.8-.8 1.7-1.6 3.6-1.6 7.3 0 3.7.9 5.6 1.7 7.3.5 1.1.9 2.1 1.1 3.5h-4.3v3.8h19.7v-3.8h-3.4c-.3-2.3-.9-3.8-1.5-5.1-.7-1.5-1.3-2.9-1.3-5.7 0-2.8.6-4.2 1.3-5.7.8-1.7 1.6-3.6 1.6-7.3 0-3.7-.9-5.6-1.7-7.3-.7-1.5-1.3-2.9-1.3-5.7 0-2.8.6-4.2 1.3-5.7.2-1.2.8-2.6 1.1-4.7zm-35.1 47.2c-.3-2.3-.9-3.7-1.5-5-.7-1.5-1.3-2.9-1.3-5.7 0-2.8.6-4.2 1.3-5.7.8-1.7 1.6-3.6 1.6-7.3 0-3.7-.9-5.6-1.7-7.3-.7-1.5-1.3-2.9-1.3-5.7 0-2.8.6-4.2 1.3-5.7.6-1.2 1.2-2.7 1.5-4.7h4.1c-.2 1.2-.6 2.2-1.1 3.1-.8 1.7-1.6 3.6-1.6 7.3 0 3.7.9 5.6 1.7 7.3.7 1.5 1.3 2.9 1.3 5.7 0 2.8-.6 4.2-1.3 5.7-.8 1.7-1.6 3.6-1.6 7.3 0 3.7.9 5.6 1.7 7.3.5 1.1.9 2 1.1 3.4h-4.2zm27.3.1c-.3-2.3-.9-3.8-1.5-5.1-.7-1.5-1.3-2.9-1.3-5.7 0-2.8.6-4.2 1.3-5.7.8-1.7 1.6-3.6 1.6-7.3 0-3.7-.9-5.6-1.7-7.3-.7-1.5-1.3-2.9-1.3-5.7 0-2.8.6-4.2 1.3-5.7.6-1.2 1.2-2.7 1.5-4.7h4.1c-.2 1.2-.6 2.2-1.1 3.1-.8 1.7-1.6 3.6-1.6 7.3 0 3.7.9 5.6 1.7 7.3.7 1.5 1.3 2.9 1.3 5.7 0 2.8-.6 4.2-1.3 5.7-.8 1.7-1.6 3.6-1.6 7.3 0 3.7.9 5.6 1.7 7.3.5 1.1.9 2.1 1.1 3.5h-4.2z"/></symbol><symbol id="letter-i" viewBox="-265 388.9 64 64"><title>_</title><path class="st0" d="M-241.6 396.2h3.1v49h-3.1v4h17.9v-4h-3.1v-49h3.1v-4h-17.9v4zm11.3 49h-4.6v-49h4.6v49z"/></symbol><symbol id="letter-l" viewBox="0 0 64 64"><path d="M43.7 55.6h-13V8.3h3V4.6H16.5v3.7h3v47.3h-3v3.8h30.9v-9.7h-3.7v5.9zM22.9 8.3h4.4v47.3h-4.4V8.3z"/></symbol><symbol id="letter-m" viewBox="-265 388.9 64 64"><title>_</title><path d="M-208.5 397.2v-3.7h-17.3v3.7h2.7L-232 415l-8.9-17.8h2.7v-3.7h-17.3v3.7h3v47.4h-3v3.8h17.3v-3.8h-3V404l7.4 14.8h-3.6v3.8h11.2v-3.8h-3.7l7.4-14.8v40.6h-3v3.8h17.3v-3.8h-3v-47.4h2.7zm-36.2 47.4h-4.5v-47.4h4.5v47.4zm29.8 0h-4.5v-47.4h4.5v47.4zM-227 444.6c0-.1 0-.1 0 0z"/></symbol><symbol id="letter-n" viewBox="0 0 64 64"><path d="M50.2 47V8.3h5.4V4.5H41.3v3.8h5.4v32.9c-.8-.4-1.6-.9-2.6-2-1.4-1.6-1.7-2.7-2-4.1-.4-1.6-.8-3.3-2.8-5.6-2-2.3-3.7-2.9-5.2-3.5-1.3-.5-2.4-.9-3.8-2.5s-1.7-2.7-2-4.1c-.4-1.5-.8-3.3-2.8-5.6-2-2.3-3.7-2.9-5.2-3.5-1.1-.4-2.1-.8-3.2-1.9h5.4V4.5H8.4v3.8h5.5v47.4H8.4v3.8h14.2v-3.8h-5.4V21.1c1.4 1.6 1.7 2.7 2 4.1.4 1.5.8 3.3 2.8 5.6 2 2.3 3.7 2.9 5.2 3.5 1.3.5 2.4.9 3.8 2.5s1.7 2.7 2 4.1c.4 1.5.8 3.3 2.8 5.6 2 2.3 3.7 2.9 5.2 3.5 1.3.5 2.4.9 3.8 2.5 1.1 1.2 1.5 2.2 1.8 3.1h-5.2v3.8h14.2v-3.8h-5.4V47zm-3.4 2.5c-1.7-1.7-3.2-2.3-4.5-2.8-1.3-.5-2.4-.9-3.8-2.5s-1.7-2.7-2-4.1c-.4-1.6-.8-3.3-2.8-5.6-2-2.3-3.7-2.9-5.2-3.5-1.3-.5-2.4-.9-3.8-2.5s-1.7-2.7-2-4.1c-.4-1.5-.8-3.3-2.8-5.6-1-1.1-1.8-1.8-2.7-2.3v-3.9c.7.4 1.4.6 2 .9 1.3.5 2.4.9 3.8 2.5s1.7 2.7 2 4.1c.4 1.5.8 3.3 2.8 5.6 2 2.3 3.7 2.9 5.2 3.5 1.3.5 2.4.9 3.8 2.5s1.7 2.7 2 4.1c.4 1.5.8 3.3 2.8 5.6 2 2.3 3.7 2.9 5.2 3.5v4.6z"/></symbol><symbol id="letter-o" viewBox="-265 388.9 64 64"><title>_</title><path class="st0" d="M-206.7 420.8c0-11.4-3.9-19.6-11.1-23.9v-.4h-.7c-3.9-2.2-8.8-3.4-14.6-3.4-5.8 0-10.6 1.2-14.6 3.4h-.4v.3c-7.4 4.3-11.3 12.5-11.3 24.1 0 11.3 3.9 19.3 11.3 23.6v.2h.3c4 2.2 8.9 3.4 14.7 3.4 5.8 0 10.7-1.2 14.7-3.4h.6v-.3c7.3-4.4 11.1-12.4 11.1-23.6zm-49.2 0c0-9.2 2.7-15.9 7.9-19.9v39.3c-5.2-3.8-7.9-10.4-7.9-19.4zm22.9 23.7c-3.7 0-7-.5-9.8-1.5-.3-.1-.9-.4-1.5-.6v-43.6c.5-.2.9-.4 1.5-.6 2.8-1 6.1-1.5 9.8-1.5 3.7 0 7 .5 9.8 1.5.4.1.9.4 1.8.8v43.3c-.9.4-1.8.7-1.8.7-2.8 1-6.1 1.5-9.8 1.5zm15.3-4.4v-39c5 4 7.6 10.6 7.6 19.7 0 8.9-2.6 15.4-7.6 19.3z"/></symbol><symbol id="letter-q" viewBox="-58 59.4 64 64"><title>_</title><path class="st0" d="M-12.2 114c7.1-4.2 10.9-12 10.9-23.1 0-11.2-3.8-19.2-10.9-23.5l-.7-.4c-3.9-2.2-8.6-3.3-14.3-3.3-5.7 0-10.4 1.1-14.3 3.3l-.4.2C-49.1 71.5-53 79.5-53 90.9c0 11.1 3.9 19 11.1 23.2l.3.2c3.9 2.2 8.7 3.3 14.4 3.3h25.9v-3.4h-11.3l.4-.2zm0-42.4C-7.3 75.5-4.7 82-4.7 91c0 8.7-2.6 15.1-7.5 18.9V71.6zM-42 110c-5.1-3.8-7.7-10.2-7.7-19.1 0-9.1 2.6-15.6 7.7-19.5V110zm5.1 2.7c-.3-.1-.9-.3-1.5-.6V69.2c.4-.2.9-.4 1.5-.6 2.8-1 6-1.5 9.7-1.5 3.7 0 6.9.5 9.7 1.5.4.1.9.4 1.7.8V112c-.9.4-1.7.7-1.7.7-2.8 1-6 1.5-9.7 1.5-3.7 0-6.9-.5-9.7-1.5z"/></symbol><symbol id="letter-r" viewBox="0 0 64 64"><title>_</title><path class="st0" d="M50.6 55.7c-.3-1.4-.7-3-2.4-5.1l-2.6 2.1c.8 1.1 1.3 2.2 1.6 3.1h-4.7c-.2-.4-.4-.7-.6-1.1-1.5-1.7-3-2.4-4.2-3-1.2-.5-2.2-1.1-3.6-2.8-1.4-1.7-1.6-2.8-1.9-4-.3-1.5-.6-3.2-2.5-5.5-1.8-2.3-3.4-3.1-4.8-3.7-1.2-.5-2.2-1.1-3.6-2.6-1.4-1.7-1.6-2.8-1.9-4-.3-1.5-.6-3.1-2.4-5.3v-4.4h.5c1.2.5 1.9.8 3.2 2.4 1.3 1.6 1.5 2.6 1.8 3.9.3 1.5.6 3.2 2.4 5.4 1.8 2.2 3.4 3 4.8 3.6 1.3.5 2.2 1 3.5 2.6 1.3 1.6 1.5 2.6 1.8 4 .3 1.5.6 3.2 2.4 5.4 1.8 2.2 3.4 3 4.8 3.6 1.3.5 2.2 1 3.5 2.6l2.6-2.1c-1.8-2.2-3.4-3-4.8-3.6-1.3-.5-2.2-1-3.5-2.6-1.3-1.6-1.5-2.6-1.8-4-.2-1-.4-2-1.1-3.3 1.7-.8 3.2-2.1 4.3-3.9 1.8-2.8 2.9-6.2 2.9-9.9 0-7.8-2.9-13.1-8.7-16-5.4-2.8-12.7-3.1-19.8-3.1H9.6v3.7h3.6v47.6H9.6v3.7h11v-3.7H17V32.6l.4.4c.3.6.8 1.4 1.5 2.2 1.8 2.3 3.4 3.1 4.8 3.7 1.2.5 2.2 1.1 3.6 2.6 1.4 1.7 1.6 2.8 1.9 4 .3 1.5.7 3.2 2.5 5.5 1.6 2 2.3 2.3 3.8 3.1.7.4 1.7.8 2.4 1.6h-2.8v3.7h19.2v-3.7h-3.8zM17 8c6 0 12.6.4 17 2.6 2.9 1.4 6.6 4.3 6.6 12.7 0 3-.8 5.8-2.2 7.8-.7 1.1-1.9 2.3-3.5 2.9-1.5-1.5-2.8-2.1-3.9-2.6-1.3-.5-2.2-1-3.5-2.6-1.3-1.6-1.5-2.6-1.8-4-.3-1.5-.6-3.2-2.4-5.4-1.8-2.2-3.3-2.9-4.7-3.5-.4-.2-1-.4-1.4-.6-.1-.1-.3-.2-.4-.4V8h.2z"/></symbol><symbol id="letter-s" viewBox="-265 388.9 64 64"><title>_</title><path d="M-227.5 419.2h-12c-1 0-2-.1-2.9-.3v-22c.9-.2 1.9-.3 2.9-.3h11.9c5.7 0 10.4 3.5 11.5 8.3v6.4h3.9V395h-3.9v3.1c-2.8-2.9-6.9-4.8-11.5-4.8h-11.9c-8.4 0-15.3 6.3-15.3 14v1.8c0 7.6 6.7 13.8 15 14H-227.6c1.2 0 2.3.2 3.4.4v21.8c-1.1.3-2.2.4-3.4.4h-12.3c-6.1 0-11.1-3.8-12-8.7v-6h-3.9v16.4h3.9v-3.1c2.9 3 7.2 5 12 5h12.3c8.7 0 15.7-6.3 15.7-13.9v-1.7c.1-8.3-7-14.5-15.6-14.5zm-23.8-10.5V407c0-3.7 2.2-6.9 5.4-8.8v19.3c-3.2-1.9-5.4-5.1-5.4-8.8zm36 26.1c0 3.6-2.1 6.7-5.3 8.6v-18.9c3.2 1.9 5.3 5 5.3 8.6v1.7z"/></symbol><symbol id="letter-t" viewBox="0 0 64 64"><path d="M51.7 4.5c-2.6 0-3.9.6-5.1 1.2-1 .5-1.8.8-3.5.8s-2.5-.4-3.5-.8c-1.2-.6-2.5-1.2-5.1-1.2-2.6 0-3.9.6-5.1 1.2-1 .5-1.8.8-3.5.8s-2.5-.4-3.5-.8c-1.2-.6-2.5-1.2-5.1-1.2-2.6 0-3.9.6-5.1 1.2-.5.2-.9.4-1.4.6v8.3H14V8.9c.5-.2 1-.4 1.6-.6 0 0 1-.2 1.7-.2.8 0 1.6.2 1.6.2l1.9.7c.7.3 1.4.7 2.4.9 0 0 .7.2 1.5.2h2v43.6c-1.7.3-2.7.8-3.6 1.2-.5.2-.9.4-1.4.6v3.8c1.3-.2 2.1-.6 2.9-1 1-.5 1.8-.8 3.5-.8s2.5.4 3.5.8c1.2.6 2.5 1.2 5.1 1.2 2.6 0 3.9-.6 5.1-1.2.1-.1.2-.1.4-.2v-4c-.8.2-1.4.5-1.9.8-.9.4-1.6.7-2.9.8V8.9c.1.1.3.1.4.2 1.2.6 2.5 1.2 5.1 1.2 2.6 0 3.9-.6 5.1-1.2.6-.3 1.1-.5 1.9-.7v6.2h3.4V4.7c.1 0-.8-.2-1.6-.2zM33.3 54.9c-.9-.4-1.9-.9-3.4-1.1V9.5c.4-.1.7-.3 1-.4.9-.4 1.7-.8 3.3-.8v47.1c-.3-.2-.6-.3-.9-.5z"/></symbol><symbol id="letter-u" viewBox="-265 388.9 64 64"><title>_</title><path d="M-208.7 395.2c-1 .5-1.8.8-3.5.8s-2.5-.4-3.5-.8c-1.2-.6-2.5-1.2-5-1.2s-3.9.6-5 1.2c-.1.1-.2.1-.4.2v3.9c.8-.2 1.4-.5 1.9-.8.8-.4 1.5-.7 2.8-.8v46c-3.2 2.5-7.3 3.9-11.6 3.9-4.4 0-8.4-1.5-11.6-3.9v-44c1.5-.2 2.5-.7 3.4-1.1.5-.2.9-.4 1.3-.6v-3.8c-1.3.2-2.1.6-2.9 1-1 .5-1.8.8-3.5.8s-2.5-.4-3.5-.8c-1.2-.6-2.5-1.2-5-1.2s-3.9.6-5 1.2c-.1.1-.2.1-.4.2v3.9c.8-.2 1.4-.5 1.9-.8.8-.4 1.5-.7 2.8-.8v30.7c0 4.3 1.2 8.3 3.3 11.7 4 6.4 11.1 10.8 19.2 10.8 5.2 0 10.1-1.8 13.9-4.8.4-.3.7-.6 1.1-.9 1.6-1.5 3.1-3.2 4.2-5.1 2.1-3.4 3.3-7.4 3.3-11.7v-28.7c1.5-.2 2.5-.7 3.4-1.1.5-.2.9-.4 1.3-.6v-3.8c-1.2.3-2.1.7-2.9 1zm-43.5 33.2v-30.2c.3.1.6.2.8.4.9.4 1.9.9 3.4 1.1v40.8c-2.6-3.4-4.2-7.6-4.2-12.1zm34.1 12v-42.3c.3.1.6.2.8.4.9.4 1.9.9 3.4 1.1v29.9c-.2 4.1-1.7 7.9-4.2 10.9z"/></symbol><symbol id="letter-v" viewBox="0 0 64 64"><title>_</title><path class="st0" d="M48.3 4.9v3.8h3.5L38 54.1c-.7-1-1.2-1.7-1.8-2.4-1.2-1.3-2.2-2.5-3.4-5.5s-1.2-4.6-1.2-6.3c0-1.8 0-3.9-1.3-7.5-1.3-3.5-2.7-5.1-3.9-6.5-1.2-1.3-2.2-2.5-3.4-5.5-1.2-3-1.2-4.6-1.2-6.3 0-1.5 0-3.1-.8-5.6h3.6V4.7H5.5v3.8h3.6c1 2.6 1 4 1.1 5.7 0 1.9.1 4 1.4 7.6 1.3 3.6 2.8 5.2 4 6.6 1.2 1.3 2.3 2.6 3.5 5.6 1.2 3 1.2 4.7 1.2 6.4 0 1.9.1 4 1.4 7.6 1.3 3.6 2.8 5.2 4 6.6.4.5.8.7 1.1 1.1h-2.1v3.8h19v-3.8H41L55.5 8.3h3V4.5H48.3v.4zM24.9 47c-1.2-3-1.2-4.7-1.2-6.4 0-1.9-.1-4-1.4-7.6-1.3-3.6-2.8-5.2-4-6.6-1.2-1.3-2.3-2.6-3.5-5.6-1.2-3-1.2-4.7-1.2-6.4 0-1.5-.1-3.2-.9-5.7h5c.9 2.6 1 4 1 5.6 0 1.8 0 3.9 1.3 7.5 1.3 3.5 2.7 5.1 3.9 6.5 1.2 1.3 2.2 2.5 3.4 5.5 1.2 3 1.2 4.6 1.2 6.3 0 1.8 0 3.9 1.3 7.5 1.3 3.5 2.7 5.1 3.9 6.5.6.7 1.2 1.2 1.6 2h-4.4c-.9-1.5-1.7-2.4-2.5-3.3-1.3-1.5-2.4-2.7-3.5-5.8z"/></symbol><symbol id="letter-w" viewBox="-265 388.9 64 64"><title>_</title><path d="M-203.1 396.3h-8.3v3.4h3l-8.2 36.7-11.1-36.7h3.2v-3.4H-242v3.4h3.1l4.2 13.8-5.1 22.9-11.1-36.7h3.2v-3.4H-265v3.4h3.1l13 43.1h-3.8v3.4h17.4v-3.4h-2.5l5.1-22.7 6.9 22.7h-3.8v3.4h17.4v-3.4h-2.5l9.8-43.1h3.5v-3.4h-1.7zm-42.8 44.7l-12.5-41.4h4l13 43.1h-4l-.5-1.7zm23.1 0l-8.4-27.6-2-6.6-2.2-7.1h4.1l1.9 6.1 11.2 37h-4l-.6-1.8z"/></symbol><symbol id="network" viewBox="0 0 64 64"><title>icons</title><path d="M46 25.18A6.46 6.46 0 0 0 41.37 27l-16.42-9.45a3.94 3.94 0 0 0 .23-1.62A6.81 6.81 0 0 0 18.24 9a6.81 6.81 0 0 0-6.94 6.94 6.81 6.81 0 0 0 6.94 6.94A6.46 6.46 0 0 0 22.87 21l16.41 9.5a3.94 3.94 0 0 0-.23 1.62 3.94 3.94 0 0 0 .23 1.62l-16.41 9.71a6.46 6.46 0 0 0-4.63-1.85 6.71 6.71 0 1 0 6.71 6.71 4.51 4.51 0 0 0-.23-1.62L41.13 37a6.46 6.46 0 0 0 4.63 1.85 6.81 6.81 0 0 0 6.94-6.94 6.44 6.44 0 0 0-6.7-6.73z"/></symbol><symbol id="play-circle" viewBox="0 0 65.113 65.114"><path d="M32.556 64.114C15.156 64.114 1 49.958 1 32.557 1 15.156 15.156 1 32.556 1s31.557 14.156 31.557 31.557c0 17.401-14.156 31.557-31.557 31.557zm0-61.114C16.259 3 3 16.259 3 32.557s13.259 29.557 29.556 29.557c16.298 0 29.557-13.259 29.557-29.557S48.854 3 32.556 3z"/><path d="M29.056 26.557v12l9-6z"/></symbol><symbol id="plus" viewBox="0 0 64 64"><title>arrow-right-nude</title><path d="M16.8 30.3h30.3v3.5H16.8z"/><path d="M30.3 16.8h3.5v30.3h-3.5z"/></symbol><symbol id="snapchat" viewBox="0 0 64 64"><title>_</title><path d="M32.31 55.32h-.62c-2.94 0-4.83-1.34-6.66-2.63a9.72 9.72 0 0 0-3.86-2 12.45 12.45 0 0 0-2-.17 13.85 13.85 0 0 0-2.81.32 6.14 6.14 0 0 1-1 .15.66.66 0 0 1-.73-.52c-.12-.4-.2-.78-.28-1.15-.21-1-.36-1.54-.76-1.61-4.67-.72-6-1.7-6.3-2.4a.9.9 0 0 1-.14-.31.53.53 0 0 1 .44-.55C14.77 43.32 18 36 18.12 35.67a2.73 2.73 0 0 0 .26-2.3c-.49-1.16-2.1-1.67-3.16-2-.26-.08-.51-.16-.7-.24-2.12-.84-2.3-1.7-2.22-2.14a2 2 0 0 1 1.95-1.27 1.37 1.37 0 0 1 .58.12 6.18 6.18 0 0 0 2.56.67 2.11 2.11 0 0 0 1.54-.51c0-.49-.06-1-.09-1.52-.21-3.39-.48-7.61.6-10a13 13 0 0 1 12.05-7.79h1a13 13 0 0 1 12.08 7.78c1.07 2.41.81 6.63.59 10v.15c0 .47-.06.93-.08 1.37a2 2 0 0 0 1.39.48 6.4 6.4 0 0 0 2.41-.67 1.82 1.82 0 0 1 .75-.15 2.29 2.29 0 0 1 .86.16 1.58 1.58 0 0 1 1.2 1.29c0 .5-.37 1.24-2.23 2-.19.08-.44.15-.7.24-1.06.34-2.67.85-3.16 2a2.73 2.73 0 0 0 .26 2.3c.14.36 3.37 7.68 10.55 8.86a.53.53 0 0 1 .44.55.88.88 0 0 1-.07.3c-.3.69-1.63 1.68-6.3 2.4-.38.06-.53.56-.76 1.6-.08.38-.17.75-.28 1.14a.62.62 0 0 1-.67.5h-.06a5.85 5.85 0 0 1-1-.13 14 14 0 0 0-2.81-.3 12.46 12.46 0 0 0-2 .17 9.7 9.7 0 0 0-3.85 2c-1.9 1.27-3.79 2.59-6.74 2.59z"/></symbol><symbol id="soundcloud" viewBox="-58 59.4 64 64"><title>icons</title><path d="M-4.7 91.4h-1.9c3.8-7.7-3.8-15.5-13.5-15.5h-2c-1.1 0-1.9.9-1.9 1.9v27.1c0 1.1.9 1.9 1.9 1.9h17.4c4.3 0 7.7-3.5 7.8-7.7-.1-4.2-3.6-7.7-7.8-7.7zM-53.1 91.2c-1.1 0-1.9.9-1.9 1.9v11.8c-.1 1.1.6 2 1.7 2.1s2-.6 2.1-1.7V93.2c0-1.1-.8-2-1.9-2zM-37.6 77.9c-1.1 0-1.9.9-1.9 1.9V105c-.1 1.1.6 2 1.7 2.1s2-.6 2.1-1.7V79.8c0-1.1-.8-1.9-1.9-1.9zM-29.8 83.7c-1.1 0-1.9.9-1.9 1.9v19.3c-.1 1.1.6 2 1.7 2.1 1.1.1 2-.6 2.1-1.7V85.6c-.1-1-.9-1.9-1.9-1.9zM-45.3 85.6c-1.1 0-1.9.9-1.9 1.9V105c.1 1.1 1.1 1.8 2.1 1.7.9-.1 1.6-.8 1.7-1.7V87.6c0-1.1-.9-2-1.9-2z"/></symbol><symbol id="spotify" viewBox="-58 59.4 64 64"><title>_</title><path d="M-26 68.4c-12.7 0-23 10.3-23 23s10.3 23 23 23 23-10.3 23-23-10.3-23-23-23zm8.8 33.9c-.4 0-.7-.1-1-.3-3.6-2.1-7.7-3.1-11.8-3.1-2.4 0-4.9.3-7.2.8-.4.1-.7.2-1.1.2-.8 0-1.4-.6-1.5-1.4-.1-.8.5-1.5 1.2-1.6 2.8-.7 5.7-1 8.6-1 4.7-.1 9.3 1.1 13.3 3.5.6.3 1 .9.9 1.5.1.8-.6 1.4-1.4 1.4zm2.6-6.1c-.4 0-.8-.2-1.2-.4-4.5-2.5-9.5-3.8-14.6-3.7-2.5 0-5.1.3-7.5 1-.4.1-.7.2-1.1.3-1 0-1.8-.8-1.8-1.8-.1-.9.5-1.7 1.4-1.9 2.9-.9 6-1.3 9-1.3 5.8-.1 11.4 1.4 16.4 4.2.7.4 1.1 1.1 1 1.8.1 1-.7 1.8-1.6 1.8zm2.8-7c-.4 0-.8-.1-1.2-.3-4.2-2.5-10.6-3.9-16.9-3.9-3.1 0-6.1.3-9.1 1.1-.4.1-.8.2-1.2.2-1.2 0-2.2-1-2.2-2.1v-.1c0-1 .6-1.9 1.6-2.2 3.6-1 7.2-1.5 10.9-1.4 6.7 0 13.9 1.4 19 4.4.8.4 1.2 1.2 1.2 2.1.1 1.2-.9 2.2-2.1 2.2z"/></symbol><symbol id="twitter" viewBox="0 0 64 64"><title>_</title><path class="cls-1" d="M53 19a17.2 17.2 0 0 1-5 1.34 8.65 8.65 0 0 0 3.78-4.76 17.36 17.36 0 0 1-5.47 2.09 8.62 8.62 0 0 0-14.67 7.85 24.45 24.45 0 0 1-17.75-9A8.62 8.62 0 0 0 16.6 28a8.61 8.61 0 0 1-3.9-1.08V27a8.62 8.62 0 0 0 6.91 8.44 8.72 8.72 0 0 1-2.27.3 8.26 8.26 0 0 1-1.62-.16 8.62 8.62 0 0 0 8 6 17.28 17.28 0 0 1-10.69 3.68 18.3 18.3 0 0 1-2.03-.09A24.34 24.34 0 0 0 24.21 49c15.84 0 24.5-13.12 24.5-24.5v-1.11A17.19 17.19 0 0 0 53 19z"/></symbol><symbol id="valaire" viewBox="0 0 64 64"><path class="st0" d="M32 0C14.4 0 0 14.4 0 32s14.4 32 32 32 32-14.4 32-32S49.6 0 32 0zm0 61.4C15.8 61.4 2.6 48.2 2.6 32S15.8 2.6 32 2.6 61.4 15.8 61.4 32 48.2 61.4 32 61.4zM16.4 13.7h.1z"/><path class="st0" d="M48.5 13.7h-32L10 17.4v.6l-.1 5.2L14 26l-.1 4.9 4.1 2.8-.1 4.9 4.1 2.8-.1 4.9 4.1 2.8-.1 4.9 4.3 2.9.6-.3 4.9-2.6.2-.1 2-1.1 16.6-34-6-5.1zm-31.3 2h29.2l-2.5 4.9H19.4l-2.3-1.5.1-3.4zm8 18.8l.1-4.9-4.1-2.8.1-4.2h21.6L31.9 44l-2.7-1.8.1-4.9-4.1-2.8zm5.1 20.1L27.9 53l.1-5-4.1-2.8.1-4.9-4.1-2.8.1-4.9-4.1-2.8.1-4.9-4.1-2.8.1-4.1 3.2-1.8-.1 4 3.5 2.4.2.1.4.3-.1 4.9 4.1 2.8-.1 4.9 4.1 2.8-.1 4.9 4.1 2.8V51l2.6 1.7-3.5 1.9zm6-3.3l-.6.3-2.5-1.7.1-4.2 15.1-29.5 3.5 3-15.6 32.1z"/></symbol><symbol id="vimeo" viewBox="-58 59.4 64 64"><title>youtube</title><path d="M-3 80.6c-.2 4.7-3.5 11.1-9.8 19.2-6.5 8.5-12 12.7-16.6 12.7-2.8 0-5.2-2.6-7.1-7.8-1.3-4.7-2.6-9.5-3.9-14.2-1.4-5.2-3-7.8-4.6-7.8-.4 0-1.6.8-3.8 2.3l-2.3-2.9c2.4-2.1 4.7-4.2 7-6.3 3.2-2.7 5.5-4.2 7.1-4.3 3.7-.4 6 2.2 6.9 7.7.9 5.9 1.6 9.6 1.9 11 1.1 4.9 2.3 7.4 3.6 7.4 1 0 2.5-1.6 4.5-4.8 2-3.2 3.1-5.6 3.2-7.3.3-2.7-.8-4.1-3.2-4.1-1.1 0-2.3.3-3.6.8 2.4-7.7 6.9-11.5 13.5-11.3 5.1.2 7.5 3.4 7.2 9.7z"/></symbol><symbol id="youtube" viewBox="0 0 64 64"><title>youtube</title><path class="cls-1" d="M55 20.34a6.07 6.07 0 0 0-5.2-4.72 161.53 161.53 0 0 0-18-.67 161.59 161.59 0 0 0-18 .67 6.07 6.07 0 0 0-5.19 4.72 51.43 51.43 0 0 0-.8 11.36 51.4 51.4 0 0 0 .84 11.36 6.07 6.07 0 0 0 5.19 4.72 161.51 161.51 0 0 0 18 .66 161.48 161.48 0 0 0 18-.66A6.07 6.07 0 0 0 55 43.06a51.44 51.44 0 0 0 .84-11.36A51.38 51.38 0 0 0 55 20.34zM26 39.16V23.27c5 2.66 10.15 5.3 15.28 8C36.17 33.89 31 36.51 26 39.16z"/></symbol></svg>